<mxfile host="app.diagrams.net" modified="2023-05-23T06:04:07.681Z" agent="Mozilla/5.0 (Windows NT 10.0; Win64; x64) AppleWebKit/537.36 (KHTML, like Gecko) Chrome/113.0.0.0 Safari/537.36" etag="qBNo48OC_VRz3CkbGVYR" version="21.3.2" type="github">
  <diagram id="zweGpg6Ik9HtcBBMIZYx" name="Page-1">
    <mxGraphModel dx="880" dy="484" grid="1" gridSize="10" guides="1" tooltips="1" connect="1" arrows="1" fold="1" page="1" pageScale="1" pageWidth="850" pageHeight="1100" math="0" shadow="0">
      <root>
        <mxCell id="0" />
        <mxCell id="1" parent="0" />
        <mxCell id="U6WFJ7u_nto5zkPNfptQ-3" value="" style="whiteSpace=wrap;html=1;aspect=fixed;" vertex="1" parent="1">
          <mxGeometry x="470" y="160" width="500" height="500" as="geometry" />
        </mxCell>
        <mxCell id="U6WFJ7u_nto5zkPNfptQ-12" value="Login&amp;nbsp;&lt;br&gt;&lt;br&gt;Username:&amp;nbsp;&lt;br&gt;Password:&amp;nbsp;&lt;br&gt;&lt;br&gt;Signup&amp;nbsp;" style="whiteSpace=wrap;html=1;aspect=fixed;" vertex="1" parent="1">
          <mxGeometry x="580" y="270" width="260" height="260" as="geometry" />
        </mxCell>
        <mxCell id="U6WFJ7u_nto5zkPNfptQ-16" value="" style="rounded=0;whiteSpace=wrap;html=1;" vertex="1" parent="1">
          <mxGeometry x="1000" y="160" width="480" height="500" as="geometry" />
        </mxCell>
        <mxCell id="U6WFJ7u_nto5zkPNfptQ-18" value="&amp;nbsp;profile" style="rounded=1;whiteSpace=wrap;html=1;" vertex="1" parent="1">
          <mxGeometry x="1360" y="250" width="110" height="20" as="geometry" />
        </mxCell>
        <mxCell id="U6WFJ7u_nto5zkPNfptQ-19" value="logout" style="rounded=1;whiteSpace=wrap;html=1;" vertex="1" parent="1">
          <mxGeometry x="1360" y="270" width="110" height="30" as="geometry" />
        </mxCell>
        <mxCell id="U6WFJ7u_nto5zkPNfptQ-20" value="" style="shape=actor;whiteSpace=wrap;html=1;" vertex="1" parent="1">
          <mxGeometry x="1395" y="180" width="40" height="60" as="geometry" />
        </mxCell>
        <mxCell id="U6WFJ7u_nto5zkPNfptQ-21" value="" style="whiteSpace=wrap;html=1;aspect=fixed;" vertex="1" parent="1">
          <mxGeometry x="1520" y="160" width="500" height="500" as="geometry" />
        </mxCell>
        <mxCell id="U6WFJ7u_nto5zkPNfptQ-22" value="&lt;div style=&quot;color: rgb(212, 212, 212); background-color: rgb(30, 30, 30); font-family: Consolas, &amp;quot;Courier New&amp;quot;, monospace; line-height: 19px; font-size: 9px;&quot;&gt;&lt;div&gt;{&lt;/div&gt;&lt;div&gt;&amp;nbsp; &amp;nbsp; &amp;nbsp; &amp;nbsp; &lt;span style=&quot;color: #9cdcfe;&quot;&gt;&quot;firstname&quot;&lt;/span&gt;&lt;span style=&quot;color: #dcdcdc;&quot;&gt;:&lt;/span&gt; &lt;span style=&quot;color: #ce9178;&quot;&gt;&quot;Kuldipkumar&quot;&lt;/span&gt;&lt;span style=&quot;color: #dcdcdc;&quot;&gt;,&lt;/span&gt;&lt;/div&gt;&lt;div&gt;&amp;nbsp; &amp;nbsp; &amp;nbsp; &amp;nbsp; &lt;span style=&quot;color: #9cdcfe;&quot;&gt;&quot;lastname&quot;&lt;/span&gt;&lt;span style=&quot;color: #dcdcdc;&quot;&gt;:&lt;/span&gt; &lt;span style=&quot;color: #ce9178;&quot;&gt;&quot;Prajapati&quot;&lt;/span&gt;&lt;span style=&quot;color: #dcdcdc;&quot;&gt;,&lt;/span&gt;&lt;/div&gt;&lt;div&gt;&amp;nbsp; &amp;nbsp; &amp;nbsp; &amp;nbsp; &lt;span style=&quot;color: #9cdcfe;&quot;&gt;&quot;email&quot;&lt;/span&gt;&lt;span style=&quot;color: #dcdcdc;&quot;&gt;:&lt;/span&gt; &lt;span style=&quot;color: #ce9178;&quot;&gt;&quot;Kuldip.code@gmail.com&quot;&lt;/span&gt;&lt;span style=&quot;color: #dcdcdc;&quot;&gt;,&lt;/span&gt;&lt;/div&gt;&lt;div&gt;&amp;nbsp; &amp;nbsp; &amp;nbsp; &amp;nbsp; &lt;span style=&quot;color: #9cdcfe;&quot;&gt;&quot;profileimage&quot;&lt;/span&gt;&lt;span style=&quot;color: #dcdcdc;&quot;&gt;:&lt;/span&gt; &lt;span style=&quot;color: #ce9178;&quot;&gt;&quot;pathtoURL&quot;&lt;/span&gt;&lt;span style=&quot;color: #dcdcdc;&quot;&gt;,&lt;/span&gt;&lt;/div&gt;&lt;div&gt;&amp;nbsp; &amp;nbsp; &amp;nbsp; &amp;nbsp; &lt;span style=&quot;color: #9cdcfe;&quot;&gt;&quot;password&quot;&lt;/span&gt;&lt;span style=&quot;color: #dcdcdc;&quot;&gt;:&lt;/span&gt; &lt;span style=&quot;color: #ce9178;&quot;&gt;&quot;tempPass&quot;&lt;/span&gt;&lt;/div&gt;&lt;div&gt;&lt;span style=&quot;color: #dcdcdc;&quot;&gt;}&lt;/span&gt;&lt;/div&gt;&lt;/div&gt;" style="whiteSpace=wrap;html=1;aspect=fixed;" vertex="1" parent="1">
          <mxGeometry x="1655" y="260" width="230" height="230" as="geometry" />
        </mxCell>
      </root>
    </mxGraphModel>
  </diagram>
</mxfile>
